PathFileType	4	(X/Y/Z)	W12_1_OpenSim.trc																																																																																																				
DataRate	CameraRate	NumFrames	NumMarkers	Units	OrigDataRate	OrigDataStartFrame	OrigNumFrames																																																																																																
100	100	7	34	mm	100	741	2962																																																																																																
Frame#	Time	R.ASIS			R.PSIS			S2			L.PSIS			L.ASIS			R.TH1			R.TH2			R.TH3			R.Knee			R.SH1			R.SH2			R.SH3			R.SH4			R.Ankle			R.RFoot			R.Heel			R.MT5			R.MT1			L.TH1			L.TH2			L.TH3			L.TH4			L.Knee			L.SH1			L.SH2			L.SH3			L.Ankle			L.RFoot			L.Heel			L.MT5			L.MT1			T.Top			T.Lat			T.Bot		
		X1	Y1	Z1	X2	Y2	Z2	X3	Y3	Z3	X4	Y4	Z4	X5	Y5	Z5	X6	Y6	Z6	X7	Y7	Z7	X8	Y8	Z8	X9	Y9	Z9	X10	Y10	Z10	X11	Y11	Z11	X12	Y12	Z12	X13	Y13	Z13	X14	Y14	Z14	X15	Y15	Z15	X16	Y16	Z16	X17	Y17	Z17	X18	Y18	Z18	X19	Y19	Z19	X20	Y20	Z20	X21	Y21	Z21	X22	Y22	Z22	X23	Y23	Z23	X24	Y24	Z24	X25	Y25	Z25	X26	Y26	Z26	X27	Y27	Z27	X28	Y28	Z28	X29	Y29	Z29	X30	Y30	Z30	X31	Y31	Z31	X32	Y32	Z32	X33	Y33	Z33	X34	Y34	Z34
741	7.4	1046.6791	989.3035	-412.8082	834.132	1019.1353	-440.0979	818.8704	1011.5714	-489.1353	823.1447	1017.5729	-541.5306	1018.0166	986.0859	-647.1319	1057.2435	719.3576	-355.5511	976.0676	708.2813	-349.6843	990.9933	599.4188	-366.4169	1026.0016	471.9282	-393.7665	1043.5876	380.6874	-386.8554	1027.9796	266.9058	-385.1928	961.4329	392.9627	-379.4144	948.3311	280.9776	-368.8073	963.6173	62.3242	-417.6695	992.9796	17.4964	-410.3112	904.6095	35.7633	-462.7513	1084.2705	14.0767	-394.8532	1116.5161	20.942	-494.7177	1031.261	705.9341	-688.1146	1031.5811	598.1701	-698.426	950.5519	702.0875	-709.2983	953.2656	592.3702	-712.8355	958.9478	472.534	-702.4977	884.5522	374.9482	-703.5829	833.1466	440.9045	-701.2426	749.6201	370.7323	-682.8522	624.7289	245.4716	-652.7928	597.2852	188.379	-661.5963	589.2968	267.7297	-593.6068	622.6773	111.4246	-688.982	659.3198	77.5214	-614.2783	895.6146	348.1879	-406.1968	875.4365	354.5392	-438.3227	895.3148	317.7854	-427.4077
742	7.41	1046.2408	990.2246	-412.3321	833.7206	1020.4052	-439.1221	818.4739	1012.8671	-487.9656	823.0002	1019.0409	-540.3657	1017.6281	987.601	-646.5484	1053.4392	718.8972	-355.3704	971.5655	707.7304	-349.1522	985.4302	600.1904	-365.7029	1017.7938	471.7337	-393.1618	1033.134	379.1208	-386.684	1018.1436	266.9438	-384.5054	952.4266	393.2008	-378.8942	938.2123	281.4976	-368.5362	951.9199	62.4664	-417.4203	981.0491	17.6563	-410.2104	892.6271	36.3476	-462.6204	1072.2815	13.9795	-394.7675	1104.3533	20.7529	-494.7187	1037.2177	709.8842	-688.0775	1040.0869	602.0463	-698.8148	956.6108	704.245	-710.0086	962.1257	594.5867	-713.6197	970.3741	475.3366	-702.8903	895.9766	378.1243	-704.7212	844.827	443.7629	-700.0785	761.6458	373.4294	-681.884	636.9492	247.595	-652.0405	610.497	190.307	-661.7492	601.6752	267.7146	-591.2601	638.2085	115.2127	-691.7857	676.8634	80.1356	-618.4159	886.3598	349.3666	-406.0527	865.9899	355.4854	-437.7479	885.9536	318.6608	-427.1116
743	7.42	1045.8359	991.2935	-411.6983	833.2716	1021.4057	-438.4121	817.8687	1013.9711	-487.3649	822.686	1020.147	-539.5079	1016.9286	988.8244	-645.7792	1048.5743	717.8987	-355.5922	967.5015	708.5098	-348.7318	979.3116	600.1659	-365.5907	1009.378	471.5372	-392.568	1023.6123	378.6387	-386.2836	1007.8381	266.795	-384.3246	943.0601	393.5004	-378.3832	928.0496	282.9229	-368.2225	940.1689	62.7129	-417.3052	969.0729	17.6128	-410.1277	880.3678	37.3364	-462.2224	1060.2062	13.8467	-394.5196	1092.3845	20.7518	-494.3666	1042.063	714.3333	-688.2744	1048.6312	606.2083	-699.0254	962.5407	706.3893	-710.5853	970.9396	596.9298	-714.5041	981.4606	478.0775	-703.6701	907.8318	381.0483	-705.1536	856.4131	446.4172	-699.1069	773.779	375.4548	-681.3339	650.0371	247.5896	-651.762	625.1006	190.2686	-662.4632	613.3206	266.2947	-590.9783	655.251	116.8661	-693.5712	695.7836	81.9148	-620.9706	876.7378	350.37	-405.3956	856.2232	356.6456	-436.9946	876.3647	319.5772	-426.5951
744	7.43	1045.1221	991.9432	-410.6499	832.683	1022.3869	-437.9779	817.5181	1015.1116	-486.8847	822.4043	1021.4671	-539.1375	1017.138	990.231	-645.193	1044.5708	717.2974	-355.2574	963.0331	709.1895	-348.5957	972.9429	600.8417	-365.0614	1000.7953	471.4024	-392.0401	1014.1168	378.5708	-385.7018	997.5131	266.54	-384.3498	933.801	394.8712	-377.8003	918.0683	283.5904	-367.5707	928.3715	63.2452	-417.2467	957.1991	17.6398	-410.2584	868.2783	37.8635	-462.0018	1048.7382	13.6214	-394.0503	1080.3162	20.433	-494.4669	1047.6434	718.6204	-689.4581	1056.8583	610.5621	-698.9495	968.5297	708.6118	-711.1891	979.6805	599.2991	-715.4151	992.2711	480.9351	-704.2128	919.1862	384.4607	-706.5665	867.7785	448.4365	-698.3738	786.2738	376.4837	-681.2146	663.8223	246.2187	-652.3698	641.0077	188.3175	-663.4004	625.4423	263.5499	-591.8772	674.4466	116.3035	-694.6336	715.5419	82.655	-621.9266	867.1264	351.0558	-405.1467	846.3624	357.6746	-436.5063	866.3803	320.3498	-426.0166
745	7.44	1044.2809	992.6027	-409.7106	831.8887	1023.3193	-437.3823	816.8789	1016.0449	-486.5385	821.7449	1022.474	-538.8223	1017.1563	991.7087	-644.1706	1040.0594	716.8793	-355.1164	958.2953	709.9969	-348.2812	966.4836	601.3076	-364.9696	991.899	471.4133	-391.586	1004.6226	378.5998	-385.3962	987.2122	267.1386	-383.6993	924.3411	395.3456	-377.3832	907.6343	284.0377	-367.5722	916.7144	63.7839	-417.0844	945.4542	17.8748	-410.32	856.5149	38.7324	-461.8602	1035.8387	12.6938	-394.3579	1068.3291	20.1531	-494.4513	1052.7041	722.6347	-689.0326	1064.7247	614.9662	-698.8763	974.6844	710.8133	-711.6781	988.0155	601.9125	-716.5023	1002.8778	483.6511	-704.8474	931.5288	386.0819	-706.6622	879.2639	449.6454	-698.1998	798.3091	376.5238	-681.0693	678.165	243.4443	-653.6243	657.5924	184.4802	-664.8638	638.1006	259.4909	-593.929	694.5126	114.0146	-694.9589	736.6271	82.5845	-622.2831	856.9409	352.0265	-404.4811	836.5918	358.6937	-436.2754	856.2469	321.261	-425.7422
746	7.45	1042.9846	992.7585	-408.6078	831.0615	1024.0773	-437.2684	815.9272	1016.9899	-486.5378	821.0956	1023.5789	-538.8385	1016.931	992.7914	-643.23	1035.4326	717.4089	-355.0754	953.3298	710.7279	-348.0282	959.7746	601.9457	-364.5153	982.9781	471.5837	-391.162	994.5378	378.5087	-384.8995	976.5457	267.1859	-383.4366	914.5623	395.8958	-376.9666	897.0286	284.829	-367.4554	904.7946	64.6195	-416.7769	933.4404	17.9103	-410.52	843.9976	39.2835	-461.5471	1023.7442	12.7042	-394.3709	1056.2223	20.2388	-494.1462	1057.4575	726.6436	-688.3442	1072.1603	619.1408	-698.5603	979.7439	713.0096	-712.6442	995.9514	604.607	-717.3259	1012.9905	486.6386	-705.1386	943.4166	387.4909	-707.6358	890.1595	450.1513	-698.5504	810.5457	375.6364	-681.6973	693.1578	238.8805	-655.252	674.8466	179.0042	-666.273	651.542	253.8171	-596.0124	715.4283	110.3571	-695.1907	758.7531	81.5011	-622.1793	847.1247	353.033	-404.4897	826.1435	359.4513	-436.1521	845.8937	322.3053	-425.671
747	7.46	1041.5959	992.8196	-407.6087	830.1378	1024.7094	-437.229	815.085	1017.6371	-486.6977	820.4534	1024.3508	-538.9034	1016.4202	993.6269	-642.3352	1030.4114	716.8669	-354.9256	948.1946	711.3104	-348.0562	953.0855	602.5303	-364.5208	974.1261	471.7632	-390.7994	984.632	378.7954	-384.4501	965.8538	267.3415	-383.2669	904.6517	396.4628	-376.8165	886.3975	285.4614	-367.351	893.0245	65.0732	-416.8843	921.7876	18.4317	-410.5873	832.1725	40.2198	-461.4701	1011.7938	12.5053	-394.3843	1044.3428	20.4334	-494.1005	1061.4791	730.0447	-687.8614	1078.931	623.3182	-698.1958	984.9773	715.0956	-713.1717	1003.4921	607.282	-718.5841	1022.7497	489.38	-705.3695	955.7492	388.3262	-707.8127	900.8817	449.8107	-699.4781	822.9916	373.7051	-682.8842	708.9916	233.1941	-656.7095	693.027	172.1924	-667.6868	665.3967	246.6474	-598.5226	737.5087	105.652	-695.5236	781.0368	79.6994	-621.3484	836.6885	354.2602	-404.2062	816.4814	360.5899	-435.9106	835.528	323.5725	-425.642
